<?xml version="1.0" encoding="UTF-8"?>
<svg id="Layer_1" xmlns="http://www.w3.org/2000/svg" version="1.1" viewBox="0 0 595.28 841.89">
  <!-- Generator: Adobe Illustrator 30.1.0, SVG Export Plug-In . SVG Version: 2.1.1 Build 136)  -->
  <defs>
    <style>
      .st0 {
        fill: #0e0e0e;
      }
    </style>
  </defs>
  <g id="Generative_Object">
    <path class="st0" d="M233.46,632.73c-13.8,2.18-10.83-4.85-19.77-2.82-16.79,3.81-17.98-1.19-28.41-1.11-2.24.02-5.35-.37-7.34-1.66-11.51-7.4-14.44,1.85-31.02-4.98-5.31-2.19-13.59.59-15.68-4.23-.57-1.31-.14-3.82,1.46-4.93,8.79-6.12,4.56-6.8,12.68-6.03,4.35.41,9.38-1.11,10.89-5.41,2.59-7.39,5.12-.36,14.71-6.37,3.85-2.41,8.05-1.68,11.69.49,2.06,1.23,3.74.5,5.5-.19,8.74-3.43,2.03-11.3,6.27-12.88,2.84-1.06,4.37-2.73,5.53-5.49l2.03-4.82c1.88-4.48,6.56-7.08,10.98-5.2,6.19,2.63,3.91-5.9,9.81-7.44,6.77-1.77,14.75,10.76,21.32,5.96,1.62-1.18,2.04-2.99,2.23-5.03.56-6,7.4-5.53,8.79-7.89,2.12-3.6-2.73-8.74-3.99-12.04s-2.41-7.46-5.37-9.85c-4.84-3.9-9.11-7.84-13.63-12.19s-10.75-7.06-16.97-8.41c-22.87-4.97-26.75-16.82-33.14-19.78l-11.69-5.43c-3.41-1.58-7-2.56-10.41-3.97-16.83-6.96-11.51-12.29-29.91-18.95-14.55-5.26-13.59-15.77-27.9-19.47-7.55-1.95-14.17-5.78-18.78-12.23-2.48-3.48-3.85-7.81-1.93-11.79,1.4-2.89,5.2-3.08,7.94-2.02.9.35,16.13,7.6,14.53,3.6-2.06-5.14-4.76-9.58-7.12-14.36-1.75-3.55-2.74-9.38.38-11.63,4.02-2.91,10.27,1.29,13.54,5.88,4.12,5.79,7.19,11.94,10.46,18.19,1.7,3.25,3.98,6.47,7.81,7.66,4.92,1.53-2.33-15.54,6.33-14.21,6.51,1,8.13,8.56,10.41,14.78,2.74,7.47,7.03,13.45,12.35,19.47,4.15,4.7,8.22,9.21,14.61,10.55,5.1,1.07,10.33,1.87,14.86,4.78,5.74,3.69,6.99,9.11,17.06,11.22,1.37.29,2.45.11,3.39-.72,3.11-2.75-1.87-10.69-3.5-13.5l-5.66-9.82c-2.89-5.01-7.56-5.01-14.23-19.86-6.06-13.49-13.54-12.01-22.02-24.98-6.46-9.89-14.56-7.16-20.82-18.68-5.5-10.12-17.07-11.16-22.32-15.59-8.42-7.1-15.89-5.42-25.62-14.97-10.63-10.44-16.45-5.57-33.08-20.18-2.96-2.6-5.43-5.55-6.72-9.48-1.04-3.19.11-7.33,3.48-8.27,4.28-1.2,8.5.62,12.77,2.22,1.83-3.29-3.78-12.63,2.85-15.44,4.46-1.89,8.55,4.94,10.91,8.55,3.03,4.62,6.31,8.6,10.29,12.35,4.94,4.66,11.99,11.58,19.58,9.13,5.85-1.89-5.81-12.67-7.64-20.93-2.22-9.95-9.45-12.42-14.52-22.42-1.75-3.45-3.45-9.18.2-11.42,4-2.46,8.22,2.46,13.45,4.45,2.75,1.05-1.91-10.17,1.97-13.46,3.36-2.85,9.16.1,11.76,2.93,6.22,6.75,5.94,15.42,10.66,22.51,7.01,10.52,6.57,15.7,10.74,22.41,2.7,4.35,4.6,8.8,6.91,13.33,2.87,5.63,5.99,10.91,7.37,17.15s13.79,18,15.91,17.31c3.58-1.17,3.78-21.25,7.38-29.13,1.42-3.1,4.92-4.09,7.92-2.24,2.38,1.47,3.58,3.98,4.44,6.55,4.95,14.69,2.42,31.9,9.13,45.72,7.77,16,17.86,15.29,23.99,26.48,2.14,3.91,7.38,4.1,10.51,8.84,10.08,15.27,7.16,23.71,22.62,40.7,1.04,1.14,4.08,6.42,6.86,5.87,4.8-.96,4.37-9.99,3.99-14.05l-1.22-13.33c-.6-6.51-1.59-12.81-3.2-19.19-2.44-9.67-11.72-16.55-13.97-26.07-1.48-6.26-4.32-11.58-7.54-17.22-2.65-4.66-4.56-9.5-6.55-14.22-8.71-20.59-16.29-14.6-23.82-33.77-1.16-2.97-2.05-5.51-3.96-8.09-7.7-10.38-5.41-15.26-12.84-23.91-3.01-3.51-5.51-7.13-9-10.2-10.17-8.92-6.64-6.43-12.13-16.13-1.77-3.12-4.6-5.19-7.18-7.78l-13.53-13.59c-3.87-3.89-10.16-14.3-5.82-19.13,3.23-3.6,9.32-.53,12.52,2.81,3.58,3.74,7.56,6.32,11.3,9.51,2.91,2.49,14.03,14.39,18.14,12.1.71-.4,1.58-1.31,1.68-2.59.65-8.88-7.54-14.78-8.23-22.26-.25-2.68.45-5.92,3.25-6.8,3.57-1.12,7.79,4.41,10.08,4.57,3.16-1.68-2.31-10.81,3.77-17.44,2.67-2.92,7.63-.82,8.99,2.5,3.7,9.05,4.92,19.54,6.29,29.03.17,1.15,1.24,3.97,2.81,3.46,5.5-1.8,7.83-10.66,13.39-13.11,3.1-1.37,5.92.04,7.12,2.96,2.84,6.96-1.51,12.75-3.91,20.9-.98,3.35-.37,6.4-.18,9.72.34,5.91.42,11.59,1.25,17.56,1.54,11.05,5.1,10.08,7.68,24.01.72,3.92,3.39,11.49,7.55,11.09.81-.08,1.62-.91,2.05-1.78l3.89-7.82c1.63-3.28,4.55-4.79,7.76-5.78,1.97-2.45,2.44-6.42,3.29-9.44,1.4-4.94,5.07-16.65,11.85-15.3,5.24,1.04,5.9,10.88,5.51,14.62-1.02,9.95-3.69,19.16-6.22,28.81-3.59,13.62-5.02,11.13.01,27.19,1.44,4.6,1.82,9.14,3.46,13.5,2.14,5.7,4.39,11.17,5.92,17.09,1.11,4.3,2.83,8.22,6.04,11.54,1.57,1.63,4.16,1.86,5.71-.09,3.14-3.96,6.04-8.05,7.67-12.83,1.76-5.17,2.69-10.76,2.79-16.47.14-8.03-2.12-23.4,5.25-29.48,1.52-1.26,3.74-1.82,5.83-1.18,6.5,2,4.86,14.19,9.18,14.01,1.44-.06,1.86-1.28,2.53-2.35,4.72-7.54,9.96-21.01,6.81-29.99-1.56-4.43-1.15-8.98-2.51-13.3l-5.78-18.37c-4.13-13.14-13.07-12.33-12.47-30.24.24-7.25-4.74-11.16-8.52-18.13-2.68-4.93-7.76-16.78-2.53-20.58,1.46-1.06,3.45-1.14,5.18-.34l6.54,3.01c3.96,1.83,1.44-4.52,3.26-8.66.68-1.55,1.79-2.79,2.92-3.16,4.45-1.46,7.36,2.91,8.41,7.19l2.9,11.87c1.27,5.19,7.29-8.63,13.6-6.08,4.68,1.89,3.05,9.77,1.51,14.07-1.77,4.91-6.34,18.77-1.48,22.13,2.08,1.43,4.2.94,6.17-.4l6.86-4.66c1.21-.82,3.49-.79,4.66-.32,6.38,2.59.07,16.11,1.72,25.39l2.56,14.43c.53,3,.33,6.35,1.74,9.06.69,1.32,2.74.27,3.54-.17,3.35-1.87,5.24-4.89,7.86-7.69,3.1-3.31,6.41-6.03,8.58-9.88,2.91-5.15,5-10.49,6.15-16.41l3.03-15.62c.51-2.61,1.56-5.8,3.92-7.32,4.1-2.64,7,3.44,7.58,3.83.31.21.97.03,1.34-.39,5.9-6.8,12.28-13.25,19.83-18.51,2.08-1.45,4.32-2.08,6.26-1.13,6.62,3.25-.38,16.79-3.17,21.87l-8.29,15.11c-.75,1.38-1.1,4.27.98,4.15,3.63-.21,8.14-6.8,14.94-6.68,2.91.05,4.68,2.44,4.35,5.29s-1.7,5.47-3.31,7.98c-9.65,15.09-24.45,19.42-29.77,26.15-3.45,4.36-4.59,9.97-8.11,14.3l-12.2,15c-4.28,5.26-23.22,24.27-25.97,28.58l-17.22,27.01c-3.15,4.94-5.25,9.87-9.15,14.39-6.02,6.96-4.37,13.56-9.77,20.05-2.74,3.29-3.45,6.83-4.86,10.84l-6.17,17.59c-1.06,3.01-1.27,6.02-1.81,9.04-1.07,5.97-1.02,11.21.1,17.15,1.42,7.55-2.63,19.34-.12,21.66,6.29,5.81,22.88-23.24,25.24-29.72,2.24-6.15,5.73-11.18,10.63-15.57,7.89-7.08,8.2-4.8,15.95-9.83,4.94-3.21,7.49-8.41,10.77-13.03,2.93-4.13,6.02-7.94,6.54-13.31.23-2.44,1.15-4.9.98-7.45-.94-14.44-7.56-20.55-2.24-35.73,2.02-5.76,5.83-18.4,14.51-16.3,5.47,1.32,6.55,10.82,6.48,15.71-.03,2.47,1.1,3.8,2.72,5.34,4.94,4.69-2.03,17.97,4.47,19.15,3.25.59,8.19-10.52,9.72-13.42,2.78-5.27,4.93-10.63,5.72-16.5,1.11-8.21,6.39-16.87,6.59-23.88.15-5.32.12-10.33,1.72-15.51,1.43-4.61,2.37-8.97,2.25-13.85-.15-6.24,1.6-18.98,8.94-20.72,2.88-.68,5.56,1.47,6.2,4.17,1.44,6.15-.25,17.42,3.53,19.24,1.51-.21,3.11-1.71,4.74-.83,9.56,5.12-5.11,21.3-.01,24.5,4.64,2.92,11-11.9,12.06-18.34l2.11-12.85c1.32-8.03,3.46-15.71,8.14-22.43,1.92-2.75,5.28-5.28,8.54-4.25,2.84.9,3.62,4.49,3.4,6.92l-.73,8.05c-.29,3.26,5.31-5.84,10.7-2.44,1.37.87,2.18,2.58,2.23,4.59.24,8.96-6.62,14.13-7.5,19.75-.2,1.29,1.47,2.19,2.67,1.63,8.77-4.08,16.17-20.37,24.2-15.94,4.96,2.74,2.6,10.39.38,14.8-4.35,8.66-11.18,14.95-18.58,20.93-3.67,2.96-5.95,7.03-10.24,9.08-11.13,5.32-7.87,10.25-19.3,19.64-3.5,2.88-5.15,6.56-7.34,10.27-6.16,10.45-14.15,15.59-18.07,23.88-.69,1.47.93,2.66,2.04,2.92,4.76,1.13,8.88-.49,13.34-2.22,6.84-2.64,13.74-5.01,18.98-10.48,3.48-3.63,7.06-6.24,11.19-9.13,1.96-1.37,6.7-9.15,10.51-7.6,3.34,1.36,3.12,6.6,1.83,9.97,3.9,1.86,8.35-5.34,16.1-5.03,4.22.17,7.01,4.13,6.39,8.27s-3.13,7.77-6.28,10.71c-9.84,9.21-17.43,5.76-25.28,14.45-9.43,10.43-14.9,9.61-22.24,14.28-4.85,3.08-9.59,5.63-15.14,6.71-8.6,1.68-16.47,5.02-24.93,7.77l-11.9,3.88c-7.25,2.36-13.98,7.02-17.77,13.77-2.61,4.64-5.42,8.6-10.03,11.46-5.82,3.6-11.87,7.08-16.88,11.88-6.57,6.3-13.97,20.6-21.77,27.36-2.59,2.25-4.53,4.94-6.49,7.85-5.2,7.71-15.75,15.48-12.23,20.79,1.68,2.54,5.28,2.15,8,1.17,13.95-5.06,22.29-16.09,27.79-29.24,1.88-4.5,7.28-12.29,12.47-9.89,1.26.58,2.32,2.07,2.53,3.73l1.02,8.13c.91,7.2,11.3-6.3,12.62-8.03,9.07-11.85,7.51-16.58,14.04-24.38,2.59-3.09,5.9-5.1,10.06-5.14,2.14-.02,3.79,1.33,4.41,3.41,2.19,7.32-4.87,16.96-3.48,18.66.35.44,1.06.82,1.77.58l13.77-4.63c2.58-.87,5.04-.05,6.69,1.8,1.57,1.76,1.49,4.54.38,7.15-2.55,5.99-7.66,10.2-13.38,13.36-16.19,8.94-18.49.94-33.82,15.73l-7.37,7.12c-3.08,2.97,5.4,3.26,9.27,5.83,2.31,1.54,4.31,4.06,3.51,7s-3.43,5.06-6.38,6.01c-5.33,1.72-10.83,3.12-16.52,3.43-5.17.28-10.17.08-14.76,2.42-3.07,1.56-5.21,4.21-7.6,6.83-4.55,4.98-12.82,6.19-18.01,10.76l11.23,9.79c2.19,1.91,5.18,1.55,6.99-.67,2.14-2.63,5.12-4.85,8.69-4.7,5.73.24,3.37,9.81,9.77,7.57,2.66-.93,5.44-.29,6.9,2.28,3.24,5.71,1.63,8.64,6.44,7.77,2.69-.48,5.11-.98,7.45-2.33,6.75-3.9,8.96,4.54,10.64,4.64,4.21.26,9.38.41,10.01,5.93.71,6.21,8.12.49,12.41,6.39.99,1.36,1.28,2.91.96,4.25-1.01,4.29-9.89,5.43-13.74,5.97-14.56,2.04-10.71-5.18-23.52.51-11.78,5.24-10.42-3.32-20.85-.73-2.06.51-5.18-.47-6.73,1.79-.85,1.23-.74,3.63-2.35,4.41-6.2,3-23.68,8.46-28.6,1.2-6.55.47-11.67,2.51-18.25-1.45-2.45-1.48-5.41-1.47-7.55.49-3.38,3.1-7.37,3.81-11.67,4.08-4.03.25-7.59.4-11.26-1.89s-3.93,2.67-14.36,3.17c-6.73.33-17.32,1.71-22.12-4.1-6.45-.18-10.43,2.28-15.71-3.95-1.46-1.73-4.77-3.08-6.7-1.86-1.52.97-1.76,3.07-2.92,4.15-2.55,2.39-5.97,1.72-9.09,2.21l-.05.04Z"/>
  </g>
</svg>